<mxfile host="app.diagrams.net" modified="2024-01-31T05:59:16.441Z" agent="Mozilla/5.0 (Macintosh; Intel Mac OS X 10_15_7) AppleWebKit/537.36 (KHTML, like Gecko) Chrome/121.0.0.0 Safari/537.36" etag="D_enYHztfLQLooi8Uc99" version="23.0.0" type="github">
  <diagram name="第 1 页" id="ZIspFB8TVMEnZOVCnchd">
    <mxGraphModel dx="623" dy="332" grid="1" gridSize="10" guides="1" tooltips="1" connect="1" arrows="1" fold="1" page="1" pageScale="1" pageWidth="827" pageHeight="1169" math="0" shadow="0">
      <root>
        <mxCell id="0" />
        <mxCell id="1" parent="0" />
        <mxCell id="AAilGHVJwRLc0JgktCKl-1" value="" style="rounded=0;whiteSpace=wrap;html=1;" vertex="1" parent="1">
          <mxGeometry x="80" y="20" width="620" height="490" as="geometry" />
        </mxCell>
        <mxCell id="AAilGHVJwRLc0JgktCKl-6" style="edgeStyle=orthogonalEdgeStyle;rounded=0;orthogonalLoop=1;jettySize=auto;html=1;" edge="1" parent="1" source="AAilGHVJwRLc0JgktCKl-2" target="AAilGHVJwRLc0JgktCKl-5">
          <mxGeometry relative="1" as="geometry" />
        </mxCell>
        <mxCell id="AAilGHVJwRLc0JgktCKl-2" value="[&#39;7&#39;,&#39;red&#39;]" style="rounded=0;whiteSpace=wrap;html=1;" vertex="1" parent="1">
          <mxGeometry x="110" y="100" width="120" height="60" as="geometry" />
        </mxCell>
        <mxCell id="AAilGHVJwRLc0JgktCKl-3" value="[&#39;white&#39;,&#39;4宽&#39;]" style="rounded=0;whiteSpace=wrap;html=1;" vertex="1" parent="1">
          <mxGeometry x="110" y="240" width="120" height="60" as="geometry" />
        </mxCell>
        <mxCell id="AAilGHVJwRLc0JgktCKl-4" value="[&#39;xl&#39;,&#39;black&#39;]" style="rounded=0;whiteSpace=wrap;html=1;" vertex="1" parent="1">
          <mxGeometry x="110" y="340" width="120" height="60" as="geometry" />
        </mxCell>
        <mxCell id="AAilGHVJwRLc0JgktCKl-5" value="&lt;div style=&quot;text-align: left;&quot;&gt;{&lt;/div&gt;&lt;div style=&quot;text-align: left;&quot;&gt;&amp;nbsp; &#39;size&#39;:7,&lt;/div&gt;&lt;div style=&quot;text-align: left;&quot;&gt;&amp;nbsp; &#39;color&#39;:&#39;red&#39;,&lt;/div&gt;&lt;div style=&quot;text-align: left;&quot;&gt;&amp;nbsp; &#39;width&#39;:None&lt;/div&gt;&lt;div style=&quot;text-align: left;&quot;&gt;&lt;span style=&quot;background-color: initial;&quot;&gt;}&lt;/span&gt;&lt;br&gt;&lt;/div&gt;" style="rounded=0;whiteSpace=wrap;html=1;" vertex="1" parent="1">
          <mxGeometry x="340" y="60" width="200" height="140" as="geometry" />
        </mxCell>
      </root>
    </mxGraphModel>
  </diagram>
</mxfile>
